# xmcd CD database file
#
# Track frame offsets:
#	150
#	26216
#	84692
#	109932
#	143047
#	177535
#	220623
#	263782
#
# Disc length: 3914 seconds
#
# Revision: 0
# Processed by: cddbd v1.5.2PL0 Copyright (c) Steve Scherf et al.
# Submitted via: CDex 1.70beta2
#
DISCID=720f4808
DTITLE=Various Artist - Jazz Roads CD197 - Swing - Jam Sessions Vol.7 (1954)
DYEAR=2006
DGENRE=Jazz
TTITLE0=Eddie Condon And His All Stars - Blues My Naughty Sweetie Gives To Me
TTITLE1=Eddie Condon And His All Stars - How Come You Do Me Like You Do
TTITLE2=Eddie Condon And His All Stars - Medley When My Sugar Walks Down The Street I Can't Believe That You're In Love With Me
TTITLE3=Eddie Condon And His All Stars - There'll Be Some Changes Made
TTITLE4=Eddie Condon And His All Stars - Tin Roof Blues
TTITLE5=Buck Clayton Jam Session - Don't Be That Way
TTITLE6=Buck Clayton Jam Session - Undecided
TTITLE7=Buck Clayton Jam Session - Blue And Sentimental
EXTD=YEAR: 2006
EXTT0=
EXTT1=
EXTT2=
EXTT3=
EXTT4=
EXTT5=
EXTT6=
EXTT7=
PLAYORDER=
